# Blender 4.3.1
# www.blender.org
mtllib ConcreteWall.mtl
o Wall
v -1.291892 -0.005979 7.335063
v 7.546791 -0.005979 7.335063
v -1.291892 -0.005979 -1.503621
v 7.546791 -0.005979 -1.503621
v -1.393601 -0.005979 7.436772
v 7.648500 -0.005979 7.436772
v -1.393601 -0.005979 -1.605330
v 7.648500 -0.005979 -1.605330
v -1.291892 0.695206 -1.503621
v -1.291892 0.695206 7.335063
v 7.546791 0.695206 7.335063
v 7.546791 0.695206 -1.503621
v -1.393601 0.695206 -1.605330
v -1.393601 0.695206 7.436772
v 7.648500 0.695206 7.436772
v 7.648500 0.695206 -1.605330
vn -0.0000 -0.0000 -1.0000
vn -1.0000 -0.0000 -0.0000
vn 1.0000 -0.0000 -0.0000
vn -0.0000 1.0000 -0.0000
vn -0.0000 -0.0000 1.0000
vt -4.021051 0.032543
vt -4.021051 0.733729
vt 5.021051 0.733729
vt 5.021051 0.032543
vt -3.919341 0.032543
vt -3.919341 0.733729
vt 4.919341 0.733729
vt 4.919341 0.032543
vt 4.919341 -3.919341
vt 5.021051 -4.021051
vt 5.021051 5.021051
vt 4.919341 4.919341
vt -3.919341 4.919341
vt -4.021051 5.021051
vt -4.021051 -4.021051
vt -3.919341 -3.919341
s 0
usemtl Concrete
f 7/1/1 13/2/1 16/3/1 8/4/1
f 2/5/2 11/6/2 12/7/2 4/8/2
f 5/1/2 14/2/2 13/3/2 7/4/2
f 8/4/3 16/3/3 15/2/3 6/1/3
f 11/9/4 15/10/4 16/11/4 12/12/4
f 9/13/4 13/14/4 14/15/4 10/16/4
f 12/12/4 16/11/4 13/14/4 9/13/4
f 10/16/4 14/15/4 15/10/4 11/9/4
f 3/8/3 9/7/3 10/6/3 1/5/3
f 6/4/5 15/3/5 14/2/5 5/1/5
f 4/8/5 12/7/5 9/6/5 3/5/5
f 1/5/1 10/6/1 11/7/1 2/8/1
