# Blender 4.3.1
# www.blender.org
mtllib WoodFloor.mtl
o Floor_wood
v -1.246932 0.034716 7.285001
v 7.501831 0.034716 7.285001
v -1.246932 0.000000 -1.453559
v 7.501831 0.000000 -1.453559
v -1.246932 0.000000 1.459294
v -1.246932 0.034716 4.372148
v 7.501831 0.034716 4.372148
v 7.501831 0.000000 1.459294
vn -0.0000 1.0000 -0.0000
vt 0.000807 0.999193
vt 0.000807 0.000806
vt 2.434776 0.000806
vt 2.434776 0.999193
vt 0.003085 0.999194
vt 0.003085 0.000807
vt 2.429156 0.000807
vt 2.429156 0.999194
s 0
usemtl Wood
f 5/1/1 8/2/1 4/3/1 3/4/1
f 1/5/1 2/6/1 7/7/1 6/8/1
